HIERARCHY
ROOT Hips
{
	OFFSET 0.000000 0.000000 0.000000
	CHANNELS 6 Xposition Yposition Zposition Xrotation Yrotation Zrotation
	JOINT LeftUpLeg_virtual
	{
		OFFSET 0.000000 0.000000 0.000000
		CHANNELS 3 Xrotation Yrotation Zrotation
		JOINT LeftUpLeg
		{
			OFFSET 13.026900 -6.336304 -1.092800
			CHANNELS 3 Xrotation Yrotation Zrotation
			JOINT LeftLeg
			{
				OFFSET 0.524474 -46.096886 9.782700
				CHANNELS 3 Xrotation Yrotation Zrotation
				JOINT LeftFoot
				{
					OFFSET -0.524474 -53.427422 -12.948200
					CHANNELS 3 Xrotation Yrotation Zrotation
					JOINT LeftToeBase
					{
						OFFSET 0.192200 -14.009700 16.364100
						CHANNELS 3 Xrotation Yrotation Zrotation
						JOINT LeftToe_End
						{
							OFFSET -1.784700 -0.561700 9.474800
							CHANNELS 3 Xrotation Yrotation Zrotation
							End Site
							{
								OFFSET 0 0 0
							}
						}
					}
				}
			}
		}
	}
	JOINT RightUpLeg_virtual
	{
		OFFSET 0.000000 0.000000 0.000000
		CHANNELS 3 Xrotation Yrotation Zrotation
		JOINT RightUpLeg
		{
			OFFSET -12.883000 -6.336304 -1.092800
			CHANNELS 3 Xrotation Yrotation Zrotation
			JOINT RightLeg
			{
				OFFSET -0.524587 -46.096825 9.782800
				CHANNELS 3 Xrotation Yrotation Zrotation
				JOINT RightFoot
				{
					OFFSET 0.524587 -53.427383 -12.948300
					CHANNELS 3 Xrotation Yrotation Zrotation
					JOINT RightToeBase
					{
						OFFSET -0.192200 -14.009700 16.364100
						CHANNELS 3 Xrotation Yrotation Zrotation
						JOINT RightToe_End
						{
							OFFSET 1.784700 -0.561700 9.474800
							CHANNELS 3 Xrotation Yrotation Zrotation
							End Site
							{
								OFFSET 0 0 0
							}
						}
					}
				}
			}
		}
	}
	JOINT Spine_virtual
	{
		OFFSET 0.000000 0.000000 0.000000
		CHANNELS 3 Xrotation Yrotation Zrotation
		JOINT Spine
		{
			OFFSET 0.072000 7.257294 -0.789700
			CHANNELS 3 Xrotation Yrotation Zrotation
			JOINT Spine1
			{
				OFFSET 0.000000 12.508769 -0.658067
				CHANNELS 3 Xrotation Yrotation Zrotation
				JOINT Spine1_split
				{
					OFFSET 0.000000 12.508769 -0.658067
					CHANNELS 3 Xrotation Yrotation Zrotation
					JOINT Spine2
					{
						OFFSET 0.000000 12.508769 -0.658067
						CHANNELS 3 Xrotation Yrotation Zrotation
						JOINT Neck_virtual
						{
							OFFSET 0.000000 0.000000 0.000000
							CHANNELS 3 Xrotation Yrotation Zrotation
							JOINT Neck
							{
								OFFSET 0.000000 14.033295 7.520400
								CHANNELS 3 Xrotation Yrotation Zrotation
								JOINT Head
								{
									OFFSET 0.000000 8.198502 5.703100
									CHANNELS 3 Xrotation Yrotation Zrotation
									JOINT HeadTop_End
									{
										OFFSET 0.000000 17.760803 13.332701
										CHANNELS 3 Xrotation Yrotation Zrotation
										End Site
										{
											OFFSET 0 0 0
										}
									}
								}
							}
						}
						JOINT LeftShoulder_virtual
						{
							OFFSET 0.000000 0.000000 0.000000
							CHANNELS 3 Xrotation Yrotation Zrotation
							JOINT LeftShoulder
							{
								OFFSET 6.292450 5.785301 -0.669000
								CHANNELS 3 Xrotation Yrotation Zrotation
								JOINT LeftShoulder_split
								{
									OFFSET 6.292450 5.785301 -0.669000
									CHANNELS 3 Xrotation Yrotation Zrotation
									JOINT LeftArm
									{
										OFFSET 13.907140 -6.093903 1.965100
										CHANNELS 3 Xrotation Yrotation Zrotation
										JOINT LeftForeArm
										{
											OFFSET 34.140198 0.000000 0.000000
											CHANNELS 3 Xrotation Yrotation Zrotation
											JOINT LeftHand
											{
												OFFSET 40.960209 0.000000 0.000000
												CHANNELS 3 Xrotation Yrotation Zrotation
												End Site
												{
													OFFSET 0 0 0
												}
											}
										}
									}
								}
							}
						}
						JOINT RightShoulder_virtual
						{
							OFFSET 0.000000 0.000000 0.000000
							CHANNELS 3 Xrotation Yrotation Zrotation
							JOINT RightShoulder
							{
								OFFSET -6.292450 5.785301 -0.669000
								CHANNELS 3 Xrotation Yrotation Zrotation
								JOINT RightShoulder_split
								{
									OFFSET -6.292450 5.785301 -0.669000
									CHANNELS 3 Xrotation Yrotation Zrotation
									JOINT RightArm
									{
										OFFSET -13.907140 -6.093903 1.965100
										CHANNELS 3 Xrotation Yrotation Zrotation
										JOINT RightForeArm
										{
											OFFSET -34.140198 0.000000 0.000000
											CHANNELS 3 Xrotation Yrotation Zrotation
											JOINT RightHand
											{
												OFFSET -40.960209 0.000000 0.000000
												CHANNELS 3 Xrotation Yrotation Zrotation
												End Site
												{
													OFFSET 0 0 0
												}
											}
										}
									}
								}
							}
						}
					}
				}
			}
		}
	}
}
MOTION
Frames: 10
Frame Time: 0.03333333
2.872959 99.441238 -1.977036 0.000000 0.000000 0.000000 21.187571 -4.813254 -29.315319 -76.507428 -9.044636 25.304147 60.804147 -8.364591 10.044319 -10.116034 -3.162514 -2.418491 -0.000009 0.000003 -0.000006 0.000000 0.000000 0.000000 21.187571 -4.813254 -29.315319 -36.288566 -32.625218 10.130660 40.810432 -9.806074 1.004189 -12.639883 -9.073367 10.548004 -0.054742 0.000000 0.000000 0.000000 0.000000 0.000000 21.187571 -4.813254 -29.315319 9.456246 2.920717 -15.573753 6.314205 2.817450 -10.831243 0.000000 0.000000 0.000000 0.000000 0.000000 0.000000 6.113179 2.767233 -10.953772 -2.791379 4.502990 -4.250965 -9.691559 18.412208 -4.967174 0.000000 0.000000 0.000000 6.113179 2.767233 -10.953772 0.811411 -2.476665 15.977651 0.000000 0.000000 0.000000 -57.177733 -43.418215 -99.391697 0.000027 -55.425059 0.000021 0.000000 0.000000 0.000000 6.113179 2.767233 -10.953772 -0.221537 -5.715126 2.796626 0.000000 0.000000 0.000000 16.079367 61.091766 -2.286590 -0.000014 72.079587 0.000021 0.000000 0.000000 0.000000 
3.009048 99.604332 -2.081642 0.000000 0.000000 0.000000 20.918125 -5.213090 -28.553691 -76.271630 -7.807945 25.567544 60.545228 -8.409201 10.041759 -10.105950 -3.247061 -2.176593 -0.000025 0.000003 0.000000 0.000000 0.000000 0.000000 20.918125 -5.213090 -28.553691 -36.601379 -32.079035 9.426891 40.779542 -9.746276 1.136935 -12.460154 -8.760238 10.432965 -0.050675 -0.000003 -0.000000 0.000000 0.000000 0.000000 20.918125 -5.213090 -28.553691 9.628403 2.825215 -15.383717 6.445039 2.740810 -10.688253 0.000000 0.000000 0.000000 0.000000 0.000000 0.000000 6.249397 2.693595 -10.811388 -0.796411 4.356711 -3.690192 -8.154880 18.426612 -3.530662 0.000000 0.000000 0.000000 6.249397 2.693595 -10.811388 0.763381 -2.243207 16.026725 0.000000 0.000000 0.000000 -56.139592 -44.766631 -98.210006 -0.000021 -55.603884 -0.000019 0.000000 0.000000 0.000000 6.249397 2.693595 -10.811388 -0.201843 -4.974895 1.334818 0.000000 0.000000 0.000000 14.246718 61.619795 1.246844 -0.000145 71.160176 0.000134 0.000000 0.000000 0.000000 
3.046124 99.760277 -2.139748 0.000000 0.000000 0.000000 20.498772 -5.792812 -27.856040 -75.825591 -6.778157 26.014022 60.359399 -8.492859 10.046419 -10.191223 -3.060500 -2.074489 0.000009 -0.000003 -0.000007 0.000000 0.000000 0.000000 20.498772 -5.792812 -27.856040 -36.713011 -31.344216 9.018481 40.735231 -9.723565 1.267259 -12.312978 -8.457975 10.286544 -0.048206 -0.000022 -0.000002 0.000000 0.000000 0.000000 20.498772 -5.792812 -27.856040 9.737901 2.745030 -15.208646 6.534465 2.691600 -10.541844 0.000000 0.000000 0.000000 0.000000 0.000000 0.000000 6.345200 2.646783 -10.664554 1.163591 4.299132 -3.121160 -6.113504 18.694849 -2.004240 0.000000 0.000000 0.000000 6.345200 2.646783 -10.664554 0.658040 -1.924517 15.859515 0.000000 0.000000 0.000000 -54.937950 -45.760037 -97.271518 0.000010 -55.536005 0.000011 0.000000 0.000000 0.000000 6.345200 2.646783 -10.664554 -0.134090 -4.148873 0.057187 0.000000 0.000000 0.000000 13.311118 62.319985 3.667544 -0.000048 69.803748 0.000057 0.000000 0.000000 0.000000 
3.022015 99.890823 -2.219555 0.000000 0.000000 0.000000 20.025522 -6.574781 -27.230766 -75.293806 -6.001983 26.544820 60.241708 -8.599611 10.054523 -10.315011 -2.554602 -2.087360 -0.000058 -0.000003 0.000007 0.000000 0.000000 0.000000 20.025522 -6.574781 -27.230766 -36.769869 -30.610770 8.894195 40.681887 -9.744925 1.248558 -12.148381 -8.067992 10.153746 -0.046963 0.000005 0.000000 0.000000 0.000000 0.000000 20.025522 -6.574781 -27.230766 9.816895 2.646321 -15.016827 6.617684 2.636585 -10.376586 0.000000 0.000000 0.000000 0.000000 0.000000 0.000000 6.436673 2.598915 -10.496853 2.850633 4.337962 -2.563690 -3.586370 19.274362 -0.580094 0.000000 0.000000 0.000000 6.436673 2.598915 -10.496853 0.446421 -1.456532 15.488663 0.000000 0.000000 0.000000 -53.560916 -46.487391 -96.369427 0.000062 -55.412068 0.000037 0.000000 0.000000 0.000000 6.436673 2.598915 -10.496853 -0.015639 -3.206065 -1.084823 0.000000 0.000000 0.000000 12.642391 63.185015 5.530706 -0.000025 68.235871 0.000027 0.000000 0.000000 0.000000 
2.970028 99.998772 -2.404430 0.000000 0.000000 0.000000 19.640016 -7.423287 -26.625578 -74.756666 -5.504916 26.885824 60.106477 -8.705040 10.064077 -10.365124 -1.673135 -2.191434 -0.000019 0.000001 0.000004 0.000000 0.000000 0.000000 19.640016 -7.423287 -26.625578 -37.005169 -29.881036 8.836094 40.656004 -9.800568 1.180856 -11.939224 -7.690697 10.002929 -0.046327 -0.000005 0.000002 0.000000 0.000000 0.000000 19.640016 -7.423287 -26.625578 9.936005 2.503760 -14.776131 6.741442 2.549394 -10.177077 0.000000 0.000000 0.000000 0.000000 0.000000 0.000000 6.570283 2.523456 -10.293949 4.179520 4.401196 -1.970484 -1.153829 19.995015 0.596893 0.000000 0.000000 0.000000 6.570283 2.523456 -10.293949 0.228752 -0.953295 15.112157 0.000000 0.000000 0.000000 -51.984925 -47.148208 -95.169581 0.000023 -55.744794 0.000005 0.000000 0.000000 0.000000 6.570283 2.523456 -10.293949 0.154795 -2.111259 -2.230781 0.000000 0.000000 0.000000 11.059641 63.733506 8.184459 -0.000096 67.046394 0.000092 0.000000 0.000000 0.000000 
2.891930 100.113037 -2.727158 0.000000 0.000000 0.000000 19.417432 -8.151173 -25.928826 -74.246943 -5.136651 26.854668 59.855243 -8.919853 10.080698 -10.248865 -0.515578 -2.326010 -0.156834 0.000001 -0.000010 0.000000 0.000000 0.000000 19.417432 -8.151173 -25.928826 -37.589970 -28.823200 8.537138 40.712442 -9.865716 1.433385 -11.702874 -7.636015 9.722834 -0.045706 0.000005 -0.000002 0.000000 0.000000 0.000000 19.417432 -8.151173 -25.928826 10.176912 2.358255 -14.488361 6.941143 2.461454 -9.947736 0.000000 0.000000 0.000000 0.000000 0.000000 0.000000 6.778290 2.445102 -10.063861 5.131817 4.381344 -1.289485 0.522267 20.453802 1.490878 0.000000 0.000000 0.000000 6.778290 2.445102 -10.063861 0.262473 -0.799317 15.081495 0.000000 0.000000 0.000000 -50.440974 -47.607426 -93.589479 -0.000039 -56.735407 -0.000056 0.000000 0.000000 0.000000 6.778290 2.445102 -10.063861 0.338233 -1.107448 -3.097290 0.000000 0.000000 0.000000 8.580123 63.577402 11.646401 -0.000070 66.579619 0.000035 0.000000 0.000000 0.000000 
2.780472 100.282120 -3.140461 0.000000 0.000000 0.000000 19.322134 -8.713676 -24.992598 -73.729406 -4.617961 26.610607 59.270121 -8.553616 10.096798 -9.973610 0.026125 -2.671311 -0.251879 -0.000001 0.000005 0.000000 0.000000 0.000000 19.322134 -8.713676 -24.992598 -38.500844 -27.198402 7.856049 40.839111 -9.913565 2.140548 -11.459341 -8.032554 9.279592 -0.044180 -0.000031 -0.000005 0.000000 0.000000 0.000000 19.322134 -8.713676 -24.992598 10.586885 2.292975 -14.203053 7.252277 2.435836 -9.733125 0.000000 0.000000 0.000000 0.000000 0.000000 0.000000 7.094039 2.427715 -9.852895 5.763428 4.232865 -0.628135 1.402121 20.308084 2.091584 0.000000 0.000000 0.000000 7.094039 2.427715 -9.852895 0.581505 -1.216055 15.437063 0.000000 0.000000 0.000000 -48.970605 -47.656204 -91.755627 0.000060 -58.122683 0.000061 0.000000 0.000000 0.000000 7.094039 2.427715 -9.852895 0.472224 -0.471196 -3.360432 0.000000 0.000000 0.000000 6.468810 63.061818 14.575316 -0.000009 66.413631 0.000023 0.000000 0.000000 0.000000 
2.648621 100.563553 -3.573715 0.000000 0.000000 0.000000 19.251330 -9.307141 -23.694845 -73.079780 -3.671395 26.341985 58.337199 -7.756665 10.110005 -9.621739 0.094040 -3.148276 -0.236139 0.000001 0.000001 0.000000 0.000000 0.000000 19.251330 -9.307141 -23.694845 -39.549947 -25.108105 6.930228 40.904432 -9.924863 3.007822 -11.165671 -8.638804 8.753967 -0.040569 -0.000007 0.000002 0.000000 0.000000 0.000000 19.251330 -9.307141 -23.694845 11.141681 2.360685 -14.013491 7.687050 2.512941 -9.605945 0.000000 0.000000 0.000000 0.000000 0.000000 0.000000 7.529922 2.519343 -9.731695 6.214743 4.010775 -0.204906 1.860893 19.579314 2.431873 0.000000 0.000000 0.000000 7.529922 2.519343 -9.731695 0.816142 -1.803549 15.871143 0.000000 0.000000 0.000000 -47.429722 -47.490821 -90.058763 -0.000070 -59.492191 -0.000077 0.000000 0.000000 0.000000 7.529922 2.519343 -9.731695 0.535611 -0.221558 -3.141130 0.000000 0.000000 0.000000 5.679380 63.003325 15.985160 0.000006 65.816796 -0.000019 0.000000 0.000000 0.000000 
2.505821 100.955772 -4.001450 0.000000 0.000000 0.000000 19.205083 -10.182023 -22.088589 -72.284800 -2.384259 26.155781 57.167519 -6.833841 10.120498 -9.259186 0.164228 -3.693911 -0.200423 0.000004 0.000001 0.000000 0.000000 0.000000 19.205083 -10.182023 -22.088589 -40.612336 -22.980308 6.077297 40.786215 -9.887530 3.576547 -10.759016 -9.075831 8.255390 -0.042029 0.000005 0.000000 0.000000 0.000000 0.000000 19.205083 -10.182023 -22.088589 11.710570 2.536923 -13.936079 8.152523 2.671859 -9.565666 0.000000 0.000000 0.000000 0.000000 0.000000 0.000000 7.993821 2.699422 -9.697293 6.543353 3.806474 -0.069318 2.191572 18.645949 2.623917 0.000000 0.000000 0.000000 7.993821 2.699422 -9.697293 0.637103 -1.956029 16.175544 0.000000 0.000000 0.000000 -45.831707 -47.663488 -88.928018 -0.000024 -60.769457 -0.000033 0.000000 0.000000 0.000000 7.993821 2.699422 -9.697293 0.538390 -0.262167 -2.759359 0.000000 0.000000 0.000000 6.425684 63.879699 15.682355 -0.000046 64.441592 0.000040 0.000000 0.000000 0.000000 
2.314816 101.362839 -4.445122 0.000000 0.000000 0.000000 19.344151 -11.349522 -20.444197 -71.559585 -1.276990 26.050188 55.906259 -5.651259 10.131833 -8.872504 0.251125 -4.428240 -0.162575 0.000003 -0.000005 0.000000 0.000000 0.000000 19.344151 -11.349522 -20.444197 -41.720011 -21.539744 5.659270 40.492438 -9.821262 3.359037 -10.250868 -9.045243 7.909422 -0.047267 0.000017 0.000003 0.000000 0.000000 0.000000 19.344151 -11.349522 -20.444197 12.078263 2.735381 -13.797669 8.450003 2.833352 -9.471474 0.000000 0.000000 0.000000 0.000000 0.000000 0.000000 8.287344 2.879342 -9.608864 6.722202 3.662019 -0.058559 2.543998 17.867466 2.794066 0.000000 0.000000 0.000000 8.287344 2.879342 -9.608864 0.266887 -1.731690 16.418901 0.000000 0.000000 0.000000 -44.276104 -48.443854 -88.326237 0.000083 -62.084821 0.000081 0.000000 0.000000 0.000000 8.287344 2.879342 -9.608864 0.492277 -0.543184 -2.284056 0.000000 0.000000 0.000000 8.731817 65.554400 13.679085 0.000036 62.326972 -0.000022 0.000000 0.000000 0.000000 
